<svg width="24" height="24" viewBox="0 0 24 24" fill="none" xmlns="http://www.w3.org/2000/svg">
<path d="M0 12C0 15.1826 1.26428 18.2348 3.51472 20.4853C5.76515 22.7357 8.8174 24 12 24C15.1826 24 18.2348 22.7357 20.4853 20.4853C22.7357 18.2348 24 15.1826 24 12C24 8.8174 22.7357 5.76515 20.4853 3.51472C18.2348 1.26428 15.1826 0 12 0C8.8174 0 5.76515 1.26428 3.51472 3.51472C1.26428 5.76515 0 8.8174 0 12Z" fill="#2C3242"/>
<path d="M16.7638 7.62857L10.4101 13.9823L7.79384 11.3661L6.48572 12.6742L10.4101 16.5986L18.072 8.9367L16.7638 7.62857Z" fill="#009DFF"/>
</svg>
