<svg width="424" height="93" viewBox="0 0 424 93" fill="none" xmlns="http://www.w3.org/2000/svg">
<path d="M56.7883 6H23.2516C8.68433 6 0 14.68 0 29.24V62.72C0 77.32 8.68433 86 23.2516 86H56.7483C71.3155 86 79.9999 77.32 79.9999 62.76V29.24C80.0399 14.68 71.3556 6 56.7883 6ZM36.138 68.64C37.2986 69.8 37.2986 71.72 36.138 72.88C35.5377 73.48 34.7773 73.76 34.017 73.76C33.2566 73.76 32.4962 73.48 31.8959 72.88L25.0125 66L18.129 72.88C17.5287 73.44 16.7684 73.76 16.008 73.76C15.2476 73.76 14.4872 73.48 13.8869 72.88C12.7263 71.72 12.7263 69.8 13.8869 68.64L20.7703 61.76L13.8869 54.88C12.7263 53.72 12.7263 51.8 13.8869 50.64C15.0475 49.48 16.9685 49.48 18.129 50.64L25.0125 57.52L31.8959 50.64C33.0565 49.48 34.9774 49.48 36.138 50.64C37.2986 51.8 37.2986 53.72 36.138 54.88L29.2546 61.76L36.138 68.64ZM34.017 33.24H16.008C14.3672 33.24 13.0065 31.88 13.0065 30.24C13.0065 28.6 14.3672 27.24 16.008 27.24H34.017C35.6578 27.24 37.0184 28.6 37.0184 30.24C37.0184 31.88 35.6578 33.24 34.017 33.24ZM64.0319 72.24H46.0229C44.3821 72.24 43.0214 70.88 43.0214 69.24C43.0214 67.6 44.3821 66.24 46.0229 66.24H64.0319C65.6727 66.24 67.0334 67.6 67.0334 69.24C67.0334 70.88 65.6727 72.24 64.0319 72.24ZM64.0319 57.24H46.0229C44.3821 57.24 43.0214 55.88 43.0214 54.24C43.0214 52.6 44.3821 51.24 46.0229 51.24H64.0319C65.6727 51.24 67.0334 52.6 67.0334 54.24C67.0334 55.88 65.6727 57.24 64.0319 57.24ZM64.0319 33.24H58.109V39.24C58.109 40.88 56.7483 42.24 55.1075 42.24C53.4666 42.24 52.106 40.88 52.106 39.24V33.24H46.0229C44.3821 33.24 43.0214 31.88 43.0214 30.24C43.0214 28.6 44.3821 27.24 46.0229 27.24H52.106V21.24C52.106 19.6 53.4666 18.24 55.1075 18.24C56.7483 18.24 58.109 19.6 58.109 21.24V27.24H64.0319C65.6727 27.24 67.0334 28.6 67.0334 30.24C67.0334 31.88 65.6727 33.24 64.0319 33.24Z" fill="#009DFF"/>
<path d="M125.92 74.456C121.917 74.456 118.193 73.7973 114.748 72.48C111.353 71.112 108.389 69.212 105.856 66.78C103.373 64.2973 101.423 61.4347 100.004 58.192C98.636 54.8987 97.952 51.3013 97.952 47.4C97.952 43.4987 98.636 39.9267 100.004 36.684C101.423 33.3907 103.373 30.528 105.856 28.096C108.389 25.6133 111.353 23.7133 114.748 22.396C118.143 21.028 121.867 20.344 125.92 20.344C129.923 20.344 133.621 21.028 137.016 22.396C140.411 23.7133 143.349 25.588 145.832 28.02C148.365 30.452 150.316 33.3147 151.684 36.608C153.103 39.9013 153.812 43.4987 153.812 47.4C153.812 51.3013 153.103 54.8987 151.684 58.192C150.316 61.4853 148.365 64.348 145.832 66.78C143.349 69.212 140.411 71.112 137.016 72.48C133.621 73.7973 129.923 74.456 125.92 74.456ZM143.324 84.564C141.703 84.564 140.132 84.3613 138.612 83.956C137.092 83.5507 135.547 82.892 133.976 81.98C132.456 81.1187 130.885 79.9787 129.264 78.56C127.643 77.1413 125.869 75.4187 123.944 73.392L130.1 71.872C131.671 73.7467 133.191 75.292 134.66 76.508C136.18 77.724 137.649 78.6107 139.068 79.168C140.537 79.776 141.981 80.08 143.4 80.08C147.352 80.08 150.721 78.4587 153.508 75.216L156.244 78.484C152.9 82.5373 148.593 84.564 143.324 84.564ZM125.92 69.44C129.112 69.44 132.051 68.908 134.736 67.844C137.472 66.7293 139.828 65.1587 141.804 63.132C143.831 61.1053 145.401 58.7747 146.516 56.14C147.631 53.4547 148.188 50.5413 148.188 47.4C148.188 44.208 147.631 41.2947 146.516 38.66C145.401 35.9747 143.831 33.644 141.804 31.668C139.828 29.6413 137.472 28.096 134.736 27.032C132.051 25.9173 129.112 25.36 125.92 25.36C122.728 25.36 119.764 25.9173 117.028 27.032C114.292 28.096 111.911 29.6413 109.884 31.668C107.908 33.644 106.337 35.9747 105.172 38.66C104.057 41.2947 103.5 44.208 103.5 47.4C103.5 50.5413 104.057 53.4547 105.172 56.14C106.337 58.7747 107.908 61.1053 109.884 63.132C111.911 65.1587 114.292 66.7293 117.028 67.844C119.764 68.908 122.728 69.44 125.92 69.44ZM187.85 74.456C181.061 74.456 175.715 72.5053 171.814 68.604C167.913 64.7027 165.962 58.9267 165.962 51.276V20.8H171.586V51.048C171.586 57.3307 173.005 61.9667 175.842 64.956C178.679 67.9453 182.682 69.44 187.85 69.44C193.069 69.44 197.097 67.9453 199.934 64.956C202.771 61.9667 204.19 57.3307 204.19 51.048V20.8H209.662V51.276C209.662 58.9267 207.711 64.7027 203.81 68.604C199.959 72.5053 194.639 74.456 187.85 74.456ZM226.609 74V20.8H232.233V74H226.609ZM244.299 74V70.124L281.235 23.536L281.843 25.664H244.831V20.8H287.011V24.676L250.151 71.264L249.467 69.136H287.923V74H244.299Z" fill="white"/>
<path d="M295.399 74V43.2H298.083L312.163 67.224H310.755L324.703 43.2H327.387V74H324.263V48.084H325.011L312.163 70.084H310.623L297.687 48.084H298.523V74H295.399ZM332.494 74L346.574 43.2H349.786L363.866 74H360.434L347.498 45.092H348.818L335.882 74H332.494ZM338.038 65.772L339.006 63.132H356.914L357.882 65.772H338.038ZM373.398 74V46.016H362.574V43.2H387.478V46.016H376.654V74H373.398ZM415.208 43.2H418.42V74H415.208V43.2ZM395.936 74H392.68V43.2H395.936V74ZM415.516 59.788H395.584V56.928H415.516V59.788Z" fill="#009DFF"/>
</svg>
